<svg width="0" height="0" class="hidden">
  <symbol xmlns="http://www.w3.org/2000/svg" viewBox="0 0 69 62" fill="none" id="icon-logo">
    <path d="M35.322 40.6261V60.7196C35.322 61.7107 36.3582 62.2964 37.2142 61.8459L50.0542 54.7276C50.4597 54.5023 50.73 54.0968 50.73 53.6013V33.688C50.73 32.7419 49.6938 32.1112 48.8378 32.5617L35.9978 39.4998C35.5473 39.7251 35.322 40.1756 35.322 40.6261Z" fill="#1C2F50"/>
    <path d="M0 24.0469V43.5547C0 44.0052 0.270315 44.4557 0.675789 44.681L14.4168 52.2949C15.2728 52.7454 16.309 52.1597 16.309 51.1686V31.3905C16.309 30.94 16.0387 30.4894 15.6332 30.2642L1.89221 22.8755C1.03621 22.4701 0 23.0557 0 24.0469Z" fill="#1C2F50"/>
    <path d="M66.9039 22.7854L53.1628 30.219C52.7574 30.4443 52.4871 30.8948 52.4871 31.3453V51.1685C52.4871 52.1596 53.5233 52.7453 54.3793 52.2948L68.1203 44.6809C68.5258 44.4556 68.7961 44.0502 68.7961 43.5546V23.9117C68.7961 22.9205 67.7599 22.3348 66.9039 22.7854Z" fill="#1C2F50"/>
    <path d="M18.1106 33.7332V53.5563C18.1106 54.0068 18.3809 54.4574 18.7864 54.6826L31.6264 61.8009C32.4824 62.2515 33.5186 61.6658 33.5186 60.6746V40.6262C33.5186 40.1757 33.2483 39.7252 32.8428 39.4999L20.0028 32.6069C19.1468 32.1563 18.1106 32.7871 18.1106 33.7332Z" fill="#1C2F50"/>
    <path d="M16.6675 9.63016L2.02542 17.7396C1.16942 18.2352 1.16942 19.4967 2.02542 19.9922L16.6675 28.1017C17.073 28.327 17.5686 28.327 17.974 28.0567L30.9942 19.9472C31.8052 19.4516 31.8052 18.2802 30.9942 17.7847L17.974 9.67521C17.5686 9.44994 17.073 9.40489 16.6675 9.63016Z" fill="#1C2F50"/>
    <path d="M47.7549 7.2422L35.005 0.168947C34.5996 -0.0563157 34.149 -0.0563157 33.7886 0.168947L21.0387 7.2422C20.1827 7.69273 20.1377 8.90915 20.9937 9.44978L33.7436 17.4241C34.149 17.6944 34.6897 17.6944 35.0951 17.4241L47.845 9.44978C48.656 8.90915 48.6109 7.69273 47.7549 7.2422Z" fill="#1C2F50"/>
    <path d="M52.1229 28.1016L66.765 19.9921C67.621 19.4965 67.621 18.2351 66.765 17.7395L52.1229 9.63001C51.7174 9.40475 51.2219 9.40475 50.8164 9.67506L37.7962 17.7845C36.9853 18.2801 36.9853 19.4515 37.7962 19.947L50.8164 28.0565C51.2219 28.3268 51.7174 28.3268 52.1229 28.1016Z" fill="#1C2F50"/>
    <path d="M21.0379 30.5343L33.7878 37.6075C34.1932 37.8328 34.6438 37.8328 35.0042 37.6075L47.7541 30.5343C48.6101 30.0838 48.6551 28.8673 47.7991 28.3267L35.0492 20.3524C34.6438 20.0821 34.1031 20.0821 33.6977 20.3524L20.9478 28.3267C20.1368 28.8223 20.1819 30.0387 21.0379 30.5343Z" fill="#1C2F50"/>
    <path d="M26.762 9.13474C26.762 8.90947 26.807 8.72926 26.8521 8.504C26.8971 8.32379 26.9872 8.09852 27.0773 7.91831C27.1674 7.7381 27.3026 7.60295 27.4378 7.42274C27.5729 7.28758 27.7531 7.15242 27.9333 7.06231C28.1135 6.97221 28.2938 6.8821 28.474 6.83705C28.6542 6.792 28.8794 6.74695 29.1047 6.74695C29.33 6.74695 29.5102 6.792 29.7354 6.83705C29.9156 6.8821 30.1409 6.97221 30.3211 7.06231C30.5013 7.15242 30.6365 7.28758 30.8167 7.42274C30.9519 7.55789 31.087 7.7381 31.1771 7.91831C31.2672 8.09852 31.3573 8.27874 31.4024 8.504C31.4474 8.68421 31.4925 8.90947 31.4925 9.13474C31.4925 9.36 31.4474 9.54021 31.4024 9.76547C31.3573 9.94568 31.2672 10.1709 31.1771 10.3061C31.087 10.4863 30.9519 10.6215 30.8167 10.8017C30.6815 10.9368 30.5013 11.072 30.3211 11.1621C30.1409 11.2522 29.9607 11.3423 29.7354 11.3874C29.5552 11.4324 29.33 11.4775 29.1047 11.4775C28.8794 11.4775 28.6992 11.4324 28.474 11.3874C28.2938 11.3423 28.0685 11.2522 27.9333 11.1621C27.7531 11.072 27.618 10.9368 27.4378 10.8017C27.2575 10.6665 27.1674 10.4863 27.0773 10.3061C26.9872 10.1259 26.8971 9.94568 26.8521 9.76547C26.807 9.58526 26.762 9.36 26.762 9.13474ZM27.7081 9.13474C27.7081 9.36 27.7531 9.54021 27.7982 9.72042C27.8883 9.90063 27.9784 10.0808 28.1135 10.216C28.2487 10.3512 28.3839 10.4413 28.5641 10.5314C28.7443 10.6215 28.9245 10.6665 29.1498 10.6665C29.375 10.6665 29.5552 10.6215 29.7354 10.5314C29.9156 10.4413 30.0508 10.3512 30.186 10.216C30.3211 10.0808 30.4112 9.90063 30.5013 9.72042C30.5914 9.54021 30.5914 9.36 30.5914 9.13474C30.5914 8.90947 30.5464 8.72926 30.5013 8.54905C30.4112 8.36884 30.3211 8.18863 30.186 8.05347C30.0508 7.91832 29.9156 7.82821 29.7354 7.7381C29.5552 7.648 29.375 7.60295 29.1498 7.60295C28.9245 7.60295 28.7443 7.648 28.5641 7.7381C28.3839 7.82821 28.2487 7.91832 28.1135 8.05347C27.9784 8.18863 27.8883 8.36884 27.7982 8.54905C27.7531 8.72926 27.7081 8.90947 27.7081 9.13474Z" fill="white"/>
    <path d="M32.0314 9.13461C32.0314 8.90935 32.0764 8.72914 32.1215 8.50388C32.1665 8.32367 32.2566 8.0984 32.3467 7.91819C32.4368 7.73798 32.572 7.60282 32.7072 7.42261C32.8423 7.28746 33.0225 7.1523 33.2027 7.06219C33.3829 6.97209 33.5632 6.88198 33.7434 6.83693C33.9236 6.79188 34.1488 6.74683 34.3741 6.74683C34.5994 6.74683 34.7796 6.79188 35.0048 6.83693C35.185 6.88198 35.4103 6.97209 35.5905 7.06219C35.7707 7.1523 35.9059 7.28746 36.0861 7.42261C36.2213 7.55777 36.3564 7.73798 36.4465 7.91819C36.5366 8.0984 36.6267 8.27861 36.6718 8.50388C36.7168 8.68409 36.7619 8.90935 36.7619 9.13461C36.7619 9.35988 36.7168 9.54008 36.6718 9.76535C36.6267 9.94556 36.5366 10.1708 36.4465 10.306C36.3564 10.4862 36.2213 10.6213 36.0861 10.8016C35.9509 10.9367 35.7707 11.0719 35.5905 11.162C35.4103 11.2521 35.2301 11.3422 35.0048 11.3872C34.8246 11.4323 34.5994 11.4773 34.3741 11.4773C34.1488 11.4773 33.9686 11.4323 33.7434 11.3872C33.5632 11.3422 33.3379 11.2521 33.2027 11.162C33.0225 11.0719 32.8874 10.9367 32.7072 10.8016C32.527 10.6664 32.4368 10.4862 32.3467 10.306C32.2566 10.1258 32.1665 9.94556 32.1215 9.76535C32.0764 9.58514 32.0314 9.35988 32.0314 9.13461ZM32.9775 9.13461C32.9775 9.35988 33.0225 9.54008 33.0676 9.7203C33.1577 9.90051 33.2478 10.0807 33.3829 10.2159C33.5181 10.351 33.6533 10.4411 33.8335 10.5312C34.0137 10.6213 34.1939 10.6664 34.4192 10.6664C34.6444 10.6664 34.8246 10.6213 35.0048 10.5312C35.185 10.4411 35.3202 10.351 35.4554 10.2159C35.5905 10.0807 35.6806 9.90051 35.7707 9.7203C35.8608 9.54008 35.8608 9.35988 35.8608 9.13461C35.8608 8.90935 35.8158 8.72914 35.7707 8.54893C35.6806 8.36872 35.5905 8.18851 35.4554 8.05335C35.3202 7.91819 35.185 7.82809 35.0048 7.73798C34.8246 7.64788 34.6444 7.60283 34.4192 7.60283C34.1939 7.60283 34.0137 7.64788 33.8335 7.73798C33.6533 7.82809 33.5181 7.91819 33.3829 8.05335C33.2478 8.18851 33.1577 8.36872 33.0676 8.54893C32.9775 8.72914 32.9775 8.90935 32.9775 9.13461Z" fill="white"/>
    <path d="M37.3043 9.13461C37.3043 8.90935 37.3494 8.72914 37.3944 8.50388C37.4395 8.32367 37.5296 8.0984 37.6197 7.91819C37.7098 7.73798 37.845 7.60282 37.9801 7.42261C38.1153 7.28746 38.2955 7.1523 38.4757 7.06219C38.6559 6.97209 38.8361 6.88198 39.0163 6.83693C39.1965 6.79188 39.4218 6.74683 39.6471 6.74683C39.8723 6.74683 40.0525 6.79188 40.2778 6.83693C40.458 6.88198 40.6833 6.97209 40.8635 7.06219C41.0437 7.1523 41.1788 7.28746 41.3591 7.42261C41.4942 7.55777 41.6294 7.73798 41.7195 7.91819C41.8096 8.0984 41.8997 8.27861 41.9447 8.50388C41.9898 8.68409 42.0348 8.90935 42.0348 9.13461C42.0348 9.35988 41.9898 9.54008 41.9447 9.76535C41.8997 9.94556 41.8096 10.1708 41.7195 10.306C41.6294 10.4862 41.4942 10.6213 41.3591 10.8016C41.2239 10.9367 41.0437 11.0719 40.8635 11.162C40.6833 11.2521 40.503 11.3422 40.2778 11.3872C40.0976 11.4323 39.8723 11.4773 39.6471 11.4773C39.4218 11.4773 39.2416 11.4323 39.0163 11.3872C38.8361 11.3422 38.6108 11.2521 38.4757 11.162C38.2955 11.0719 38.1603 10.9367 37.9801 10.8016C37.7999 10.6664 37.7098 10.4862 37.6197 10.306C37.5296 10.1258 37.4395 9.94556 37.3944 9.76535C37.3494 9.58514 37.3043 9.35988 37.3043 9.13461ZM38.2054 9.13461C38.2054 9.35988 38.2504 9.54008 38.2955 9.7203C38.3856 9.90051 38.4757 10.0807 38.6108 10.2159C38.746 10.351 38.8812 10.4411 39.0614 10.5312C39.2416 10.6213 39.4218 10.6664 39.6471 10.6664C39.8723 10.6664 40.0525 10.6213 40.2327 10.5312C40.4129 10.4411 40.5481 10.351 40.6833 10.2159C40.8184 10.0807 40.9085 9.90051 40.9986 9.7203C41.0887 9.54008 41.0887 9.35988 41.0887 9.13461C41.0887 8.90935 41.0437 8.72914 40.9986 8.54893C40.9085 8.36872 40.8184 8.18851 40.6833 8.05335C40.5481 7.91819 40.4129 7.82809 40.2327 7.73798C40.0525 7.64788 39.8723 7.60283 39.6471 7.60283C39.4218 7.60283 39.2416 7.64788 39.0614 7.73798C38.8812 7.82809 38.746 7.91819 38.6108 8.05335C38.4757 8.18851 38.3856 8.36872 38.2955 8.54893C38.2504 8.72914 38.2054 8.90935 38.2054 9.13461Z" fill="white"/>
    <path d="M18.7881 19.6319C18.653 19.4066 18.4277 19.2715 18.1574 19.2715H18.0222V22.1548C18.0222 22.5603 17.7069 22.8757 17.3014 22.8757H16.986C16.5806 22.8757 16.2652 22.5603 16.2652 22.1548V19.2715H16.13C15.8597 19.2715 15.6344 19.4066 15.4993 19.6319L13.9675 22.5153C13.8323 22.7405 13.6071 22.8757 13.3368 22.8757H12.8412C12.3006 22.8757 11.9401 22.29 12.2105 21.7944L14.1027 18.5957C14.2378 18.3704 14.2378 18.0551 14.1027 17.8298L12.4808 15.3069C12.1654 14.8563 12.5258 14.2256 13.0665 14.2256H13.4719C13.7422 14.2256 13.9675 14.3608 14.1027 14.586L15.8597 17.7397H16.3102V14.9014C16.3102 14.4959 16.6256 14.1805 17.0311 14.1805H17.3464C17.7519 14.1805 18.0673 14.4959 18.0673 14.9014V17.7397H18.4728L20.1848 14.586C20.3199 14.3608 20.5452 14.2256 20.8155 14.2256H21.221C21.7616 14.2256 22.122 14.8563 21.8067 15.3069L20.1848 17.8298C20.0496 18.0551 20.0496 18.3254 20.1848 18.5506L22.0319 21.7944C22.3022 22.29 21.9418 22.8757 21.4012 22.8757H20.9056C20.6353 22.8757 20.41 22.7405 20.2749 22.5153L18.7881 19.6319Z" fill="white"/>
    <path d="M37.8461 30.039C37.8912 30.9851 37.5758 31.7059 37.0352 32.2465C36.4495 32.7872 35.6385 33.0124 34.6474 33.0124C33.6112 33.0124 32.7552 32.6971 32.1245 32.0213C31.4937 31.3455 31.1783 30.4895 31.1783 29.4533V27.7413C31.1783 26.7051 31.4937 25.804 32.1245 25.1733C32.7552 24.4975 33.5661 24.1821 34.5573 24.1821C35.5935 24.1821 36.4495 24.4524 37.0352 24.948C37.6209 25.4436 37.9362 26.2095 37.8912 27.1105V27.1556H36.855C36.5396 27.1556 36.2242 26.9303 36.1792 26.615C36.1341 26.2996 35.999 26.0743 35.8188 25.8941C35.5484 25.6238 35.143 25.4887 34.5573 25.4887C34.0167 25.4887 33.6112 25.7139 33.3409 26.1194C33.0706 26.5249 32.8903 27.0655 32.8903 27.7413V29.4533C32.8903 30.1291 33.0255 30.6697 33.3409 31.0752C33.6562 31.4806 34.0617 31.7059 34.6023 31.7059C35.143 31.7059 35.5034 31.5708 35.7737 31.3004C35.9539 31.1202 36.044 30.895 36.0891 30.5796C36.1341 30.2642 36.4495 30.039 36.7649 30.039H37.8461Z" fill="white"/>
    <path d="M52.4421 20.9836H50.6851C50.3697 20.9836 50.0994 21.1638 50.0093 21.4792L49.739 22.3352C49.6489 22.6506 49.3786 22.8308 49.0632 22.8308H48.7478C48.2523 22.8308 47.9369 22.3352 48.072 21.8847L50.5049 14.6312C50.595 14.3609 50.8653 14.1356 51.1807 14.1356H51.9466C52.2619 14.1356 52.5322 14.3158 52.6224 14.6312L55.0552 21.8847C55.1903 22.3352 54.875 22.8308 54.3794 22.8308H54.064C53.7487 22.8308 53.4784 22.6506 53.3882 22.3352L53.1179 21.4792C53.0278 21.2089 52.7575 20.9836 52.4421 20.9836ZM51.5411 19.632C52.0367 19.632 52.3971 19.1815 52.2169 18.731L51.5411 16.6135H51.496L50.8202 18.731C50.7301 19.1815 51.0906 19.632 51.5411 19.632Z" fill="white"/>
  </symbol>

  <symbol xmlns="http://www.w3.org/2000/svg" viewBox="0 0 13 13" fill="none" id="icon-search">
    <circle cx="5.15385" cy="5.15385" r="3.65385" stroke="#B5BFD4" stroke-width="3"/>
    <rect width="2.50323" height="5.00646" transform="matrix(0.707106 -0.707108 0.707106 0.707108 6.87183 8.64172)" fill="#B5BFD4"/>
  </symbol>

  <symbol xmlns="http://www.w3.org/2000/svg" viewBox="0 0 13 11" fill="none" id="icon-desktop-burger">
    <rect width="13" height="2.16667" fill="#637595"/>
    <rect y="4.33276" width="13" height="2.16667" fill="#637595"/>
    <rect y="8.66724" width="13" height="2.16667" fill="#637595"/>
  </symbol>

  <symbol xmlns="http://www.w3.org/2000/svg" viewBox="0 0 5 9" fill="none" id="icon-breadcrumbs">
    <path d="M0.84906 9L3.73423e-06 8.07955L4.15094 3.57955L5 4.50001L0.84906 9Z" fill="#637595"/> 
    <path d="M5 4.50001L4.15094 5.42045L-7.06336e-07 0.920454L0.849055 3.62887e-07L5 4.50001Z" fill="#637595"/>
  </symbol>

  <symbol xmlns="http://www.w3.org/2000/svg" viewBox="0 0 23 20" fill="none" id="icon-heart">
    <path d="M11.046 19.9677C11.3595 19.9677 11.6728 19.8506 11.912 19.6167L20.0428 11.6608C20.0449 11.6588 20.049 11.6547 20.0525 11.6511C21.3676 10.3621 22.0916 8.64929 22.0916 6.82764C22.0916 5.00375 21.3658 3.28928 20.048 1.99972C18.7299 0.710167 16.9777 0 15.1138 0C13.6335 0 12.2236 0.447941 11.0459 1.27832C9.86823 0.447941 8.45836 0 6.97812 0C5.11415 0 3.36201 0.710167 2.04401 1.99972C0.726 3.28917 0 5.00375 0 6.82764C0 8.65153 0.725886 10.366 2.03941 11.6513C2.04251 11.6545 2.04573 11.6578 2.04894 11.6608L10.1797 19.6167C10.4191 19.8507 10.7325 19.9677 11.046 19.9677ZM3.77593 9.96087C2.92065 9.12397 2.44955 8.01147 2.44955 6.82764C2.44955 5.64414 2.92053 4.53142 3.77582 3.69453C4.63122 2.85763 5.7685 2.39677 6.978 2.39677C8.18751 2.39677 9.32456 2.85763 10.1798 3.69453C10.4095 3.91923 10.7211 4.04551 11.0458 4.04551C11.3705 4.04551 11.6821 3.91923 11.9118 3.69453C12.7671 2.85763 13.9042 2.39677 15.1137 2.39677C16.3232 2.39677 17.4604 2.85763 18.3158 3.69453C19.1711 4.53142 19.6421 5.64403 19.6421 6.82764C19.6421 8.01125 19.1711 9.12397 18.3158 9.96087C18.3138 9.96289 18.3099 9.96671 18.3065 9.97008L11.0459 17.0745L3.78558 9.97041C3.78248 9.96716 3.77926 9.96412 3.77593 9.96087Z" fill="#1C2F50"/>
  </symbol>

  <symbol xmlns="http://www.w3.org/2000/svg" viewBox="0 0 26 24" fill="none" id="icon-cart">
    <path d="M12.5591 21.5266C12.5591 22.7191 11.5924 23.6858 10.3998 23.6858C9.20731 23.6858 8.24061 22.7191 8.24061 21.5266C8.24061 20.334 9.20733 19.3673 10.3998 19.3673C11.5924 19.3673 12.5591 20.334 12.5591 21.5266ZM19.1427 19.3673C17.9502 19.3673 16.9835 20.3341 16.9835 21.5266C16.9835 22.7191 17.9502 23.6858 19.1427 23.6858C20.3352 23.6858 21.302 22.7191 21.302 21.5266C21.302 20.334 20.3352 19.3673 19.1427 19.3673ZM25.8452 9.23095L23.1883 17.1278C23.1883 17.1278 22.9684 18.2997 21.8478 18.2997C20.7272 18.2997 9.76892 18.2997 8.43164 18.2997C7.09436 18.2997 7.03817 16.8308 7.03817 16.8308C7.03817 16.8308 5.6126 6.25459 5.54196 5.61565C5.47131 4.9767 4.65419 4.50312 4.65419 4.50312L1.1384 2.86082C-0.786444 1.85425 0.088484 -0.0609715 1.1384 0.378906C5.59654 2.48195 7.66748 3.51742 7.80073 4.34579C7.93559 5.17577 8.16996 7.17447 8.16996 7.17447V7.18731C8.19726 7.17929 8.21652 7.17447 8.21652 7.17447C8.21652 7.17447 21.8879 7.17447 24.6492 7.17447C26.6334 7.17447 25.8452 9.23417 25.8452 9.23095ZM22.0019 13.6281L21.9746 13.6297H8.96784L9.23594 15.7552H21.3694L22.0019 13.6281ZM23.2686 9.34173H8.43003L8.7158 11.6133C11.5621 11.6133 19.8973 11.6133 22.5975 11.6133L23.2686 9.34173Z" fill="#1C2F50"/>
  </symbol>

  <symbol xmlns="http://www.w3.org/2000/svg" viewBox="0 0 44 43" fill="none" id="icon-ruler">
    <path d="M43.622 33.7235C42.9646 33.0811 31.8156 22.1854 31.1146 21.5004L42.8558 10.026C44.3664 8.54977 44.3745 6.16521 42.8619 4.68718L39.2033 1.11198C37.6991 -0.358166 35.2503 -0.357326 33.7449 1.11399L21.9996 12.5925C21.7311 12.3301 10.514 1.36796 9.49228 0.369472C8.98895 -0.122506 8.17272 -0.122506 7.66929 0.369472L0.377269 7.49569C-0.126151 7.98767 -0.126151 8.78526 0.377269 9.27724L12.8846 21.5004L4.10926 30.0763C3.96781 30.2146 3.86108 30.3832 3.79783 30.5687L0.065833 41.3422C-0.0885961 41.7949 0.0319738 42.294 0.377269 42.6313C0.72308 42.9692 1.23389 43.0864 1.6964 42.9357L12.7203 39.2885C12.9102 39.2267 13.0827 39.1225 13.2242 38.9842L21.9996 30.4082L34.507 42.6313C35.0099 43.123 35.8267 43.1232 36.3299 42.6313L43.622 35.505C44.1255 35.0131 44.1255 34.2155 43.622 33.7235ZM35.5678 2.89554C36.0681 2.40676 36.8811 2.40567 37.3803 2.89361L41.039 6.4689C41.5417 6.96012 41.5379 7.75083 41.0329 8.2444L39.2098 10.0261L33.7407 4.68138L33.7407 4.6813L35.5678 2.89554ZM31.9177 6.46285L37.3868 11.8077L35.5638 13.5892L30.0948 8.24449L30.0947 8.2444L31.9177 6.46285ZM3.11179 8.38651L8.58083 3.04176L12.2268 6.60495L11.3154 7.49577C10.8119 7.98775 10.8119 8.78535 11.3154 9.27732C11.8187 9.7693 12.6349 9.7693 13.1383 9.27732L14.0498 8.38651L15.8729 10.1681L14.9613 11.0589C14.4579 11.5509 14.4579 12.3485 14.9613 12.8404C15.4647 13.3324 16.2809 13.3324 16.7843 12.8404L17.6958 11.9496L20.1765 14.374L14.7075 19.7187L3.11179 8.38651ZM28.2716 10.026L28.2717 10.026L30.0947 11.8076L8.66668 32.7487L6.8437 30.9671C7.56015 30.267 27.2187 11.055 28.2716 10.026ZM3.32698 39.7487L5.58412 33.2992C5.97461 33.6808 9.13822 36.7725 9.92643 37.5428L3.32698 39.7487ZM12.3127 36.3119L10.4898 34.5303L31.9178 13.5892L33.7408 15.3709C33.2331 15.867 12.5476 36.0823 12.3127 36.3119ZM35.4185 39.959L23.8226 28.6267L29.2916 23.2819L31.7724 25.7064L30.861 26.5972C30.3576 27.0892 30.3576 27.8868 30.861 28.3787C31.3643 28.8707 32.1805 28.8707 32.684 28.3787L33.5954 27.4879L35.4185 29.2696L34.507 30.1604C34.0036 30.6524 34.0036 31.45 34.507 31.9419C35.0104 32.4339 35.8266 32.4339 36.33 31.9419L37.2415 31.0511L40.8875 34.6143L35.4185 39.959Z" fill="#1C2F50"/>
  </symbol>

  <symbol xmlns="http://www.w3.org/2000/svg" viewBox="0 0 49 45" fill="none" id="icon-location">
    <path d="M49 20.2018C49 19.409 48.3573 18.7663 47.5645 18.7663C46.7716 18.7663 46.1289 19.409 46.1289 20.2018C46.1289 24.4836 44.8316 28.6155 42.3645 32.2345C39.786 30.4393 36.5765 29.0429 33.062 28.1841C36.9704 22.3868 38.9512 17.9023 38.9512 14.8425C38.9512 6.87403 32.4684 0.391296 24.5 0.391296C16.5316 0.391296 10.0488 6.87403 10.0488 14.8425C10.0488 17.9076 12.0362 22.4021 15.9579 28.2137C12.4482 29.0809 9.24014 30.4795 6.65988 32.2701C4.17677 28.6431 2.87109 24.4987 2.87109 20.2018C2.87109 19.409 2.22835 18.7663 1.43555 18.7663C0.642742 18.7663 0 19.409 0 20.2018C0 29.7225 5.68831 38.0843 13.5957 42.0401C23.8171 47.1533 36.5313 44.5212 43.8027 35.1366C43.8027 35.1364 43.8029 35.1363 43.803 35.1361C47.203 30.7481 49 25.584 49 20.2018ZM24.5 3.26239C30.8853 3.26239 36.0801 8.45716 36.0801 14.8425C36.0801 19.802 28.5192 29.964 24.5 34.8218C20.4808 29.964 12.9199 19.802 12.9199 14.8425C12.9199 8.45716 18.1147 3.26239 24.5 3.26239ZM8.42944 34.5362C10.9628 32.8071 14.1935 31.4927 17.7345 30.7539C20.6526 34.7903 23.2932 37.845 23.4153 37.9859C23.9868 38.6453 25.0122 38.6464 25.5847 37.9859C25.7071 37.8447 28.3589 34.777 31.2846 30.7275C34.8339 31.4563 38.0686 32.7688 40.5998 34.5036C32.0555 44.1418 16.987 44.1486 8.42944 34.5362Z" fill="#1C2F50"/>
    <path d="M31.2949 14.8425C31.2949 11.0958 28.2467 8.04755 24.5 8.04755C20.7533 8.04755 17.7051 11.0958 17.7051 14.8425C17.7051 18.5892 20.7533 21.6374 24.5 21.6374C28.2467 21.6374 31.2949 18.5892 31.2949 14.8425ZM20.5762 14.8425C20.5762 12.6789 22.3364 10.9186 24.5 10.9186C26.6636 10.9186 28.4238 12.6789 28.4238 14.8425C28.4238 17.006 26.6636 18.7663 24.5 18.7663C22.3364 18.7663 20.5762 17.0061 20.5762 14.8425Z" fill="#1C2F50"/>
  </symbol>

  <symbol xmlns="http://www.w3.org/2000/svg" viewBox="0 0 46 47" fill="none" id="icon-cube">
    <path d="M34.4255 7.42013C34.4195 7.41673 34.4137 7.41306 34.4077 7.40975L23.6265 1.62655C23.2343 1.41615 22.7658 1.41615 22.3736 1.62655L11.5924 7.40975C11.1413 7.65265 10.8711 8.13008 10.8711 8.62891V20.7461C10.8711 21.2209 11.1104 21.6621 11.5045 21.9137L22.2857 28.7985C22.7197 29.0764 23.2793 29.0763 23.7143 28.7985L34.4955 21.9137C34.8896 21.6621 35.1289 21.2209 35.1289 20.7461V8.62891C35.1289 8.14082 34.8693 7.66669 34.4255 7.42013ZM21.6523 25.1465L13.5664 19.9829V11.0609L21.6523 16.0179V25.1465ZM23 13.6325L14.9687 8.70895L23 4.40083L31.0313 8.70895L23 13.6325ZM32.4336 19.9829L24.3477 25.1465V16.0179L32.4336 11.0609V19.9829Z" fill="#1C2F50"/>
    <path d="M44.6523 6.97656C43.9081 6.97656 43.3047 7.59307 43.3047 8.35352V11.1074C43.3047 11.8679 43.9081 12.4844 44.6523 12.4844C45.3966 12.4844 46 11.8679 46 11.1074V8.35352C46 7.59307 45.3966 6.97656 44.6523 6.97656Z" fill="#1C2F50"/>
    <path d="M44.6523 15.2383C43.9081 15.2383 43.3047 15.8548 43.3047 16.6152V19.3691C43.3047 20.1296 43.9081 20.7461 44.6523 20.7461C45.3966 20.7461 46 20.1296 46 19.3691V16.6152C46 15.8548 45.3966 15.2383 44.6523 15.2383Z" fill="#1C2F50"/>
    <path d="M44.6523 23.5C43.9081 23.5 43.3047 24.1165 43.3047 24.877V27.6309C43.3047 28.3913 43.9081 29.0078 44.6523 29.0078C45.3966 29.0078 46 28.3913 46 27.6309V24.877C46 24.1165 45.3966 23.5 44.6523 23.5Z" fill="#1C2F50"/>
    <path d="M44.6523 31.7617C43.9081 31.7617 43.3047 32.3782 43.3047 33.1387V36.8847L23.3256 31.8026C23.1117 31.7481 22.8883 31.7481 22.6744 31.8026L2.69531 36.8847V33.1387C2.69531 32.3782 2.09192 31.7617 1.34766 31.7617C0.603391 31.7617 0 32.3782 0 33.1387V38.6465C0 39.2876 0.438527 39.8352 1.02206 39.9827L22.6744 45.4905C22.7813 45.5177 22.8907 45.5312 23 45.5312C23.1093 45.5312 23.2187 45.5177 23.3256 45.4905L44.9779 39.9827C45.5695 39.8331 46 39.2805 46 38.6465V33.1387C46 32.3782 45.3966 31.7617 44.6523 31.7617ZM23 42.7353L6.92596 38.6465L23 34.5577L39.074 38.6465L23 42.7353Z" fill="#1C2F50"/>
    <path d="M1.34766 6.97656C0.603391 6.97656 0 7.59307 0 8.35352V11.1074C0 11.8679 0.603391 12.4844 1.34766 12.4844C2.09192 12.4844 2.69531 11.8679 2.69531 11.1074V8.35352C2.69531 7.59307 2.09192 6.97656 1.34766 6.97656Z" fill="#1C2F50"/>
    <path d="M1.34766 15.2383C0.603391 15.2383 0 15.8548 0 16.6152V19.3691C0 20.1296 0.603391 20.7461 1.34766 20.7461C2.09192 20.7461 2.69531 20.1296 2.69531 19.3691V16.6152C2.69531 15.8548 2.09192 15.2383 1.34766 15.2383Z" fill="#1C2F50"/>
    <path d="M1.34766 23.5C0.603391 23.5 0 24.1165 0 24.877V27.6309C0 28.3913 0.603391 29.0078 1.34766 29.0078C2.09192 29.0078 2.69531 28.3913 2.69531 27.6309V24.877C2.69531 24.1165 2.09192 23.5 1.34766 23.5Z" fill="#1C2F50"/>
    <path d="M6.73828 1.46875C5.99402 1.46875 5.39062 2.08526 5.39062 2.8457V5.59961C5.39062 6.36005 5.99402 6.97656 6.73828 6.97656C7.48255 6.97656 8.08594 6.36005 8.08594 5.59961V2.8457C8.08594 2.08526 7.48255 1.46875 6.73828 1.46875Z" fill="#1C2F50"/>
    <path d="M6.73828 9.73047C5.99402 9.73047 5.39062 10.347 5.39062 11.1074V13.8613C5.39062 14.6218 5.99402 15.2383 6.73828 15.2383C7.48255 15.2383 8.08594 14.6218 8.08594 13.8613V11.1074C8.08594 10.347 7.48255 9.73047 6.73828 9.73047Z" fill="#1C2F50"/>
    <path d="M6.73828 17.9922C5.99402 17.9922 5.39062 18.6087 5.39062 19.3691V22.123C5.39062 22.8835 5.99402 23.5 6.73828 23.5C7.48255 23.5 8.08594 22.8835 8.08594 22.123V19.3691C8.08594 18.6087 7.48255 17.9922 6.73828 17.9922Z" fill="#1C2F50"/>
    <path d="M6.73828 26.2539C5.99402 26.2539 5.39062 26.8704 5.39062 27.6309V30.3848C5.39062 31.1452 5.99402 31.7617 6.73828 31.7617C7.48255 31.7617 8.08594 31.1452 8.08594 30.3848V27.6309C8.08594 26.8704 7.48255 26.2539 6.73828 26.2539Z" fill="#1C2F50"/>
    <path d="M39.2617 1.46875C38.5175 1.46875 37.9141 2.08526 37.9141 2.8457V5.59961C37.9141 6.36005 38.5175 6.97656 39.2617 6.97656C40.006 6.97656 40.6094 6.36005 40.6094 5.59961V2.8457C40.6094 2.08526 40.006 1.46875 39.2617 1.46875Z" fill="#1C2F50"/>
    <path d="M39.2617 9.73047C38.5175 9.73047 37.9141 10.347 37.9141 11.1074V13.8613C37.9141 14.6218 38.5175 15.2383 39.2617 15.2383C40.006 15.2383 40.6094 14.6218 40.6094 13.8613V11.1074C40.6094 10.347 40.006 9.73047 39.2617 9.73047Z" fill="#1C2F50"/>
    <path d="M39.2617 17.9922C38.5175 17.9922 37.9141 18.6087 37.9141 19.3691V22.123C37.9141 22.8835 38.5175 23.5 39.2617 23.5C40.006 23.5 40.6094 22.8835 40.6094 22.123V19.3691C40.6094 18.6087 40.006 17.9922 39.2617 17.9922Z" fill="#1C2F50"/>
    <path d="M39.2617 26.2539C38.5175 26.2539 37.9141 26.8704 37.9141 27.6309V30.3848C37.9141 31.1452 38.5175 31.7617 39.2617 31.7617C40.006 31.7617 40.6094 31.1452 40.6094 30.3848V27.6309C40.6094 26.8704 40.006 26.2539 39.2617 26.2539Z" fill="#1C2F50"/>
  </symbol>

  <symbol xmlns="http://www.w3.org/2000/svg" viewBox="0 0 17 14" fill="none" id="icon-mobile-menu">
    <rect x="0.199219" width="16.8" height="2.8" fill="#1C2F50"/>
    <rect x="0.199219" y="5.59924" width="16.8" height="2.8" fill="#1C2F50"/>
    <rect x="0.199219" y="11.2008" width="16.8" height="2.8" fill="#1C2F50"/>
  </symbol>
</svg>